
<svg viewBox="0 0 500 450" class="my-items svg" xmlns="http://www.w3.org/2000/svg" xmlns:svg="http://www.w3.org/2000/svg">
  <g stroke="#585757" stroke-width="25" fill="none" stroke-linejoin="round" class="my-items svg-stroke">
    <path
      d="m11.80745,82.97563l0,0c1.09982,-45.61966 31.59775,-68.35876 79.5016,-71.16809l317.99682,0l0,0c47.90385,0.98453 77.38255,25.54843 79.50156,71.16809l0,284.66384l0,0c-0.08056,39.23291 -32.61694,69.27112 -79.50156,71.16806l-317.99682,0c-42.80769,-0.98456 -79.42101,-31.02277 -79.5016,-71.16806l0,-284.66384z"
      stroke-linecap="square"
    />
    <line stroke-linecap="round" x1="81.50001" x2="82.50001" y1="230" y2="230" />
    <line
      stroke-linecap="round"
      
      x1="145.50001"
      x2="421.5"
      y1="230.5"
      y2="230.5"
    />
    <path
      d="m91.3655,12.79088l317.94602,0l0,0c34.80644,0.78982 45.51512,8.34494 57.89366,16.21824c12.37855,7.8733 21.2495,28.29445 21.6674,39.40012l-0.07214,86.37697c0,0.00064 -0.00185,0.00118 -0.00399,0.00118l-476.91988,-0.00118l0,0c-0.00217,0 -0.004,-0.00052 -0.004,-0.00118l0.004,-82.73972l1.01923,-10.5639c8.62277,-48.68574 76.48319,-48.733 78.46969,-48.69053l0,-0.00001l0,0.00001z"
      stroke-linecap="square"
    />
    <line stroke-linecap="round" x1="145.50001" x2="421.5" y1="360" y2="360" />
    <line stroke-linecap="round" x1="145.50001" x2="421.5" y1="295" y2="295" />
    <line stroke-linecap="round" x1="81.00001" x2="82.00001" y1="360" y2="360" />
    <line stroke-linecap="round" x1="81.00001" x2="82.00001" y1="294" y2="294" />
  </g>
</svg>

    