<svg viewBox="0 0 1000 1000" class="smile svg" xmlns="http://www.w3.org/2000/svg" xmlns:svg="http://www.w3.org/2000/svg">
  <path
    d="M174.2,327.1c69.9,0,126.5-56.7,126.5-126.5c0-69.8-56.6-126.4-126.5-126.4c-69.8,0-126.4,56.6-126.4,126.4C47.8,270.4,104.5,327.1,174.2,327.1L174.2,327.1z M825.9,327.1c69.9,0,126.5-56.7,126.5-126.5c0-69.8-56.6-126.4-126.5-126.4c-69.8,0-126.4,56.6-126.4,126.4C699.4,270.4,756.1,327.1,825.9,327.1L825.9,327.1z M956.5,567.6c-35.3-24.3-83.4-15.3-107.5,19.8c-79.3,115.1-209.7,183.8-349,183.8c-139.3,0-269.7-68.8-349-183.8c-24.2-35.2-72.3-44.1-107.5-19.9C8.3,591.7-0.6,639.8,23.7,675C131.7,832.1,309.8,925.9,500,925.9c190.2,0.1,368.3-93.8,476.4-250.8C1000.6,639.8,991.7,591.7,956.5,567.6L956.5,567.6L956.5,567.6z"  stroke="#000000" stroke-width="0" fill="#000000" class="smile svg-stroke"/>
</svg>